<?xml version="1.0" encoding="UTF-8"?>
<svg id="Layer_1" xmlns="http://www.w3.org/2000/svg" version="1.1" viewBox="0 0 24 24">
  <!-- Generator: Adobe Illustrator 29.8.4, SVG Export Plug-In . SVG Version: 2.1.1 Build 6)  -->
  <defs>
    <style>
      .st0, .st1 {
        fill: #fff;
        stroke: #231f20;
        stroke-miterlimit: 10;
      }

      .st1 {
        stroke-width: .25px;
      }
    </style>
  </defs>
  <rect class="st0" x="1.43" y="1.98" width="21.14" height="20.7"/>
  <rect class="st0" x="2.58" y="3.82" width="18.8" height="3.2"/>
  <ellipse class="st1" cx="20.18" cy="9.64" rx=".78" ry=".75"/>
  <ellipse class="st1" cx="18.18" cy="9.64" rx=".78" ry=".75"/>
  <ellipse class="st1" cx="16.17" cy="9.68" rx=".78" ry=".75"/>
  <ellipse class="st1" cx="14.22" cy="9.77" rx=".78" ry=".75"/>
  <ellipse class="st1" cx="12.11" cy="9.7" rx=".78" ry=".75"/>
  <ellipse class="st1" cx="10.1" cy="9.7" rx=".78" ry=".75"/>
  <ellipse class="st1" cx="8.09" cy="9.75" rx=".78" ry=".75"/>
  <ellipse class="st1" cx="6.14" cy="9.83" rx=".78" ry=".75"/>
  <ellipse class="st1" cx="4.03" cy="9.83" rx=".78" ry=".75"/>
  <ellipse class="st1" cx="20.18" cy="11.64" rx=".78" ry=".75"/>
  <ellipse class="st1" cx="18.18" cy="11.64" rx=".78" ry=".75"/>
  <ellipse class="st1" cx="16.17" cy="11.68" rx=".78" ry=".75"/>
  <ellipse class="st1" cx="14.22" cy="11.76" rx=".78" ry=".75"/>
  <ellipse class="st1" cx="12.11" cy="11.7" rx=".78" ry=".75"/>
  <ellipse class="st1" cx="10.1" cy="11.7" rx=".78" ry=".75"/>
  <ellipse class="st1" cx="8.09" cy="11.74" rx=".78" ry=".75"/>
  <ellipse class="st1" cx="6.14" cy="11.83" rx=".78" ry=".75"/>
  <ellipse class="st1" cx="4.03" cy="11.83" rx=".78" ry=".75"/>
  <ellipse class="st1" cx="20.08" cy="13.64" rx=".78" ry=".75"/>
  <ellipse class="st1" cx="18.07" cy="13.64" rx=".78" ry=".75"/>
  <ellipse class="st1" cx="16.07" cy="13.69" rx=".78" ry=".75"/>
  <ellipse class="st1" cx="14.12" cy="13.77" rx=".78" ry=".75"/>
  <ellipse class="st1" cx="12" cy="13.71" rx=".78" ry=".75"/>
  <ellipse class="st1" cx="9.99" cy="13.71" rx=".78" ry=".75"/>
  <ellipse class="st1" cx="7.99" cy="13.75" rx=".78" ry=".75"/>
  <ellipse class="st1" cx="6.04" cy="13.83" rx=".78" ry=".75"/>
  <ellipse class="st1" cx="3.92" cy="13.83" rx=".78" ry=".75"/>
  <ellipse class="st1" cx="20.18" cy="15.62" rx=".78" ry=".75"/>
  <ellipse class="st1" cx="18.18" cy="15.62" rx=".78" ry=".75"/>
  <ellipse class="st1" cx="16.17" cy="15.66" rx=".78" ry=".75"/>
  <ellipse class="st1" cx="14.22" cy="15.75" rx=".78" ry=".75"/>
  <ellipse class="st1" cx="12.11" cy="15.69" rx=".78" ry=".75"/>
  <ellipse class="st1" cx="10.1" cy="15.69" rx=".78" ry=".75"/>
  <ellipse class="st1" cx="8.09" cy="15.73" rx=".78" ry=".75"/>
  <ellipse class="st1" cx="6.14" cy="15.81" rx=".78" ry=".75"/>
  <ellipse class="st1" cx="4.03" cy="15.81" rx=".78" ry=".75"/>
  <ellipse class="st1" cx="20.18" cy="17.52" rx=".78" ry=".75"/>
  <ellipse class="st1" cx="18.18" cy="17.52" rx=".78" ry=".75"/>
  <ellipse class="st1" cx="16.17" cy="17.56" rx=".78" ry=".75"/>
  <ellipse class="st1" cx="14.22" cy="17.64" rx=".78" ry=".75"/>
  <ellipse class="st1" cx="12.11" cy="17.58" rx=".78" ry=".75"/>
  <ellipse class="st1" cx="10.1" cy="17.58" rx=".78" ry=".75"/>
  <ellipse class="st1" cx="8.09" cy="17.62" rx=".78" ry=".75"/>
  <ellipse class="st1" cx="6.14" cy="17.7" rx=".78" ry=".75"/>
  <ellipse class="st1" cx="4.03" cy="17.7" rx=".78" ry=".75"/>
  <ellipse class="st1" cx="20.32" cy="19.47" rx=".78" ry=".75"/>
  <ellipse class="st1" cx="18.32" cy="19.47" rx=".78" ry=".75"/>
  <ellipse class="st1" cx="16.31" cy="19.51" rx=".78" ry=".75"/>
  <ellipse class="st1" cx="14.36" cy="19.59" rx=".78" ry=".75"/>
  <ellipse class="st1" cx="12.25" cy="19.53" rx=".78" ry=".75"/>
  <ellipse class="st1" cx="10.24" cy="19.53" rx=".78" ry=".75"/>
  <ellipse class="st1" cx="8.23" cy="19.57" rx=".78" ry=".75"/>
  <ellipse class="st1" cx="6.28" cy="19.65" rx=".78" ry=".75"/>
  <ellipse class="st1" cx="4.17" cy="19.65" rx=".78" ry=".75"/>
</svg>