<?xml version="1.0" encoding="UTF-8"?>
<svg xmlns="http://www.w3.org/2000/svg" version="1.1" viewBox="0 0 24 24">
  <!-- Generator: Adobe Illustrator 29.8.4, SVG Export Plug-In . SVG Version: 2.1.1 Build 6)  -->
  <g id="Layer_1" focusable="false">
    <path d="M18.42,14.58c-.51-.66-1.05-1.23-1.05-2.5v-4.21c0-1.8.15-3.45-1.2-4.68-1.05-1.02-2.79-1.35-4.14-1.35-2.6,0-5.52.96-6.12,4.14-.06.36.18.54.4.57l2.66.3c.24-.03.42-.27.48-.5.24-1.12,1.17-1.63,2.2-1.63.56,0,1.22.21,1.55.7.4.56.33,1.31.33,1.97v.36c-1.59.18-3.66.27-5.16.93-1.81.72-2.99,2.49-2.93,4.44,0,2.82,1.8,4.23,4.1,4.23,1.95,0,3.03-.45,4.53-1.98.51.72.66,1.08,1.59,1.83.18.09.45.09.63-.1v.04l2.1-1.8c.24-.21.2-.48.03-.75h0ZM13.02,13.38c-.45.75-1.14,1.23-1.92,1.23-1.05,0-1.65-.81-1.65-1.98,0-2.31,2.1-2.73,4.08-2.73v.6c0,1.05.03,1.92-.5,2.88h-.01Z"/>
    <path d="M21.69,19.2c-6.71,4.49-15.61,3.84-21.6-1.57-.23-.2,0-.5.28-.33,6.4,3.64,14.13,4.12,20.93,1.3.45-.19.84.3.39.6Z"/>
    <path d="M22.8,17.96c-.36-.45-2.22-.2-3.1-.12-.23.03-.3-.18-.05-.36,1.5-1.05,3.96-.75,4.26-.39s-.1,2.82-1.5,4.02c-.21.18-.42.1-.3-.15.3-.8,1.02-2.58.69-3Z"/>
  </g>
</svg>