<?xml version="1.0" encoding="UTF-8"?>
<svg xmlns="http://www.w3.org/2000/svg" version="1.1" viewBox="0 0 24 24">
  <!-- Generator: Adobe Illustrator 29.8.4, SVG Export Plug-In . SVG Version: 2.1.1 Build 6)  -->
  <defs>
    <style>
      .st0 {
        fill: #333436;
      }
    </style>
  </defs>
  <g id="Layer_1" focusable="false">
    <path class="st0" d="M11.9,16.57c-1.82,0-3.12-1.28-3.12-2.97,0-1.65,1.34-2.99,2.98-2.99,0,0,0,0,0,0,1.66,0,2.94,1.3,2.94,3.03s-1.28,2.92-2.81,2.92h0ZM18,3l-3.31.73v5.11c-.81-1.03-2.05-1.37-3.51-1.37s-2.9.56-4.02,1.66c-1.26,1.21-1.93,2.76-1.93,4.49,0,1.89.72,3.51,2.11,4.74,1.06.94,2.31,1.41,3.78,1.41s2.52-.38,3.57-1.42v1.42h3.31V3Z"/>
  </g>
</svg>