<?xml version="1.0" encoding="UTF-8"?>
<svg xmlns="http://www.w3.org/2000/svg" version="1.1" viewBox="0 0 24 24">
  <!-- Generator: Adobe Illustrator 29.8.4, SVG Export Plug-In . SVG Version: 2.1.1 Build 6)  -->
  <g id="Layer_1" focusable="false">
    <path d="M12.29,2C6.62,2,3.61,5.65,3.61,9.62c0,1.85,1.03,4.15,2.67,4.88.25.11.38.06.44-.17.04-.18.27-1.03.37-1.43.03-.13.02-.24-.09-.36-.54-.63-.97-1.79-.97-2.87,0-2.78,2.19-5.46,5.93-5.46,3.23,0,5.49,2.11,5.49,5.12,0,3.41-1.79,5.77-4.13,5.77-1.29,0-2.26-1.02-1.95-2.28.37-1.49,1.09-3.11,1.09-4.19,0-.97-.54-1.78-1.66-1.78-1.32,0-2.38,1.31-2.38,3.06,0,1.11.39,1.87.39,1.87,0,0-1.3,5.28-1.54,6.26-.41,1.67.05,4.37.09,4.6.02.13.17.17.25.06.13-.17,1.7-2.42,2.14-4.05.16-.59.82-2.99.82-2.99.43.78,1.68,1.45,3.01,1.45,3.96,0,6.82-3.49,6.82-7.83,0-4.16-3.55-7.27-8.11-7.27"/>
  </g>
</svg>