<?xml version="1.0" encoding="UTF-8"?>
<svg xmlns="http://www.w3.org/2000/svg" version="1.1" viewBox="0 0 24 24">
  <!-- Generator: Adobe Illustrator 29.8.4, SVG Export Plug-In . SVG Version: 2.1.1 Build 6)  -->
  <defs>
    <style>
      .st0 {
        fill: none;
      }

      .st1 {
        fill-rule: evenodd;
      }
    </style>
  </defs>
  <g id="Layer_1" focusable="false">
    <path class="st0" d="M24,12c0,6.63-5.37,12-12,12S0,18.63,0,12,5.37,0,12,0s12,5.37,12,12Z"/>
    <path class="st1" d="M2.67,12C2.67,6.85,6.85,2.67,12,2.67s9.33,4.18,9.33,9.33h-2.33c0-3.87-3.13-7-7-7s-7,3.13-7,7,3.13,7,7,7v2.33c-5.15,0-9.33-4.18-9.33-9.33h0ZM12,17.6c-3.09,0-5.6-2.51-5.6-5.6s2.51-5.6,5.6-5.6,5.6,2.51,5.6,5.6h-2c0-1.97-1.59-3.56-3.56-3.56-1.97,0-3.56,1.59-3.56,3.56,0,1.95,1.57,3.54,3.52,3.56v2.04Z"/>
  </g>
</svg>