<?xml version="1.0" encoding="UTF-8"?>
<svg xmlns="http://www.w3.org/2000/svg" version="1.1" viewBox="0 0 24 24">
  <!-- Generator: Adobe Illustrator 29.8.4, SVG Export Plug-In . SVG Version: 2.1.1 Build 6)  -->
  <g id="Layer_1" focusable="false">
    <path d="M22,12.07c0-1.21-.98-2.18-2.18-2.19,0,0,0,0,0,0-.59,0-1.13.23-1.52.61-1.5-1.07-3.57-1.77-5.86-1.86l1-4.7,3.26.7c.04.86.77,1.53,1.63,1.49.86-.04,1.53-.77,1.49-1.63-.04-.83-.72-1.49-1.56-1.49-.61,0-1.15.36-1.4.88l-3.64-.77c-.1-.02-.2,0-.29.05-.09.06-.15.15-.16.25l-1.11,5.23c-2.33.07-4.43.77-5.95,1.86-.41-.39-.96-.61-1.52-.61-1.21,0-2.18.98-2.18,2.18,0,.86.5,1.64,1.29,1.99-.04.22-.05.43-.05.66,0,3.37,3.92,6.11,8.76,6.11s8.76-2.72,8.76-6.11c0-.22-.02-.45-.05-.66.79-.36,1.29-1.14,1.29-2.01ZM6.98,13.63c.03-.86.75-1.53,1.61-1.5.82.03,1.47.69,1.5,1.5,0,.86-.7,1.56-1.56,1.56-.86.02-1.56-.7-1.56-1.56h0ZM15.71,17.77c-1.08,1.08-3.12,1.15-3.71,1.15s-2.65-.09-3.71-1.15c-.16-.15-.16-.41,0-.57,0,0,0,0,0,0,.15-.16.41-.16.57,0,0,0,0,0,0,0,.68.68,2.11.91,3.14.91s2.47-.23,3.14-.91c.15-.16.41-.16.57,0,0,0,0,0,0,0,.14.16.14.41,0,.57ZM15.42,15.2c-.86-.03-1.53-.75-1.5-1.61.03-.82.69-1.47,1.5-1.5.86,0,1.56.7,1.56,1.56s-.7,1.56-1.56,1.56Z"/>
  </g>
</svg>