<?xml version="1.0" encoding="UTF-8"?>
<svg xmlns="http://www.w3.org/2000/svg" version="1.1" viewBox="0 0 24 24">
  <!-- Generator: Adobe Illustrator 29.8.4, SVG Export Plug-In . SVG Version: 2.1.1 Build 6)  -->
  <g id="Layer_1" focusable="false">
    <path d="M19,3H5c-1.1,0-2,.9-2,2v14c0,1.1.9,2,2,2h14c1.1,0,2-.9,2-2V5c0-1.1-.9-2-2-2ZM19.5,19c0,.3-.2.5-.5.5H5c-.3,0-.5-.2-.5-.5v-9.2l4.7-5.3h9.8c.3,0,.5.2.5.5v14ZM13.2,7.7c-.4.4-.7,1.1-.7,1.9v3.7c-.4-.3-.8-.4-1.3-.4-1.2,0-2.2,1-2.2,2.2s1,2.2,2.2,2.2c.5,0,1-.2,1.4-.5.9-.6,1.4-1.6,1.4-2.6v-4.6c0-.4.1-.6.2-.8.3-.3,1-.3,1.6-.3h.2v-1.5h-.2c-.7,0-1.8,0-2.6.7Z"/>
  </g>
</svg>