<?xml version="1.0" encoding="UTF-8"?>
<svg xmlns="http://www.w3.org/2000/svg" version="1.1" viewBox="0 0 24 24">
  <!-- Generator: Adobe Illustrator 29.8.4, SVG Export Plug-In . SVG Version: 2.1.1 Build 6)  -->
  <g id="Layer_1" focusable="false">
    <path d="M12,2C6.48,2,2,6.48,2,12s4.48,10,10,10,10-4.48,10-10S17.52,2,12,2M16.59,16.42c-.18.3-.56.39-.86.21-2.35-1.43-5.31-1.76-8.79-.96-.34.08-.67-.13-.75-.47-.08-.33.13-.67.47-.74,3.81-.87,7.08-.5,9.71,1.11.29.18.39.56.21.86M17.81,13.7c-.23.37-.71.48-1.07.26-2.69-1.65-6.78-2.13-9.97-1.17-.41.13-.85-.11-.97-.52-.12-.41.11-.85.52-.97,3.63-1.1,8.15-.57,11.23,1.33.37.23.48.71.26,1.07M17.91,10.87c-3.22-1.92-8.54-2.09-11.62-1.16-.49.15-1.02-.13-1.17-.62-.15-.49.13-1.02.62-1.17,3.53-1.07,9.4-.87,13.12,1.34.44.26.59.84.33,1.28-.26.44-.84.59-1.28.32"/>
  </g>
</svg>