<?xml version="1.0" encoding="UTF-8"?>
<svg xmlns="http://www.w3.org/2000/svg" version="1.1" viewBox="0 0 24 24">
  <!-- Generator: Adobe Illustrator 29.8.4, SVG Export Plug-In . SVG Version: 2.1.1 Build 6)  -->
  <g id="Layer_1" focusable="false">
    <path d="M19,3H5c-1.1,0-2,.9-2,2v14c0,1.1.9,2,2,2h14c1.1,0,2-.9,2-2V5c0-1.1-.9-2-2-2ZM13.31,17.66c-2.72,0-3.1-1.9-3.1-3.16v-3.56h-1.72v-1.95c1.7-.62,2.54-1.99,2.64-2.87,0-.06.06-.41.06-.58h1.9v3.1h2.17v2.3h-2.18v3.1c0,.47.13,1.3,1.2,1.26h1.1v2.36c-1.01.02-2.07,0-2.07,0Z"/>
  </g>
</svg>