<?xml version="1.0" encoding="UTF-8"?>
<svg xmlns="http://www.w3.org/2000/svg" version="1.1" viewBox="0 0 24 24">
  <!-- Generator: Adobe Illustrator 29.8.4, SVG Export Plug-In . SVG Version: 2.1.1 Build 6)  -->
  <g id="Layer_1" focusable="false">
    <path d="M17.78,12l2.36-2.64-3.46-.75.35-3.52-3.24,1.42-1.79-3.06-1.79,3.06-3.24-1.42.35,3.52-3.46.75,2.36,2.64-2.36,2.64,3.46.75-.35,3.52,3.24-1.42,1.79,3.06,1.79-3.06,3.24,1.42-.35-3.52,3.46-.75-2.36-2.64ZM18.02,13.5l-1.24-.42-.87-1.13,1.08.4,1.03,1.15ZM13.21,16.86l-.8,1.37v-1.38l.83-1.21-.03,1.22ZM10.12,7.36l.69.88-1.36-.48-.76-1.02,1.43.63ZM13.88,7.36l1.43-.63-.76,1.02-1.36.48.69-.88ZM15.84,8.78l-.67.95.04-1.49.79-1.06-.16,1.61ZM12,16l-1.18-1.72,1.18-1.6,1.18,1.6-1.18,1.72ZM9.68,10.77l-.06-2.09,1.97.7v2.04l-1.91-.64ZM12.41,9.38l1.97-.7-.06,2.09-1.91.64v-2.04ZM8.16,8.78l-.16-1.61.79,1.06.04,1.49-.67-.95ZM9.42,11.55l1.91.64-1.18,1.6-2.01-.59,1.27-1.65ZM10.76,15.64l.83,1.21v1.38l-.8-1.37-.03-1.22ZM12.66,12.19l1.91-.64,1.27,1.65-2.01.59-1.18-1.6ZM18.59,9.86l-1.48,1.66-1.75-.65,1.05-1.49,2.18.48ZM13.12,6.99l-1.12,1.44-1.12-1.44,1.12-1.92,1.12,1.92ZM5.41,9.86l2.18-.48,1.05,1.49-1.75.65-1.48-1.66ZM7.01,12.35l1.08-.4-.87,1.13-1.24.42,1.03-1.15ZM6.16,14.3l1.32-.45,1.45.43-1.17.37-1.59-.35ZM8.15,15.38l1.77-.56.05,1.89-2.04.9.22-2.22ZM14.03,16.71l.05-1.89,1.77.56.22,2.22-2.04-.9ZM16.25,14.65l-1.17-.37,1.45-.43,1.32.45-1.59.35Z"/>
  </g>
</svg>