<?xml version="1.0" encoding="UTF-8"?>
<svg xmlns="http://www.w3.org/2000/svg" version="1.1" viewBox="0 0 24 24">
  <!-- Generator: Adobe Illustrator 29.8.4, SVG Export Plug-In . SVG Version: 2.1.1 Build 6)  -->
  <g id="Layer_1" focusable="false">
    <path d="M12.16,12.79l-2.7,7.84c.81.24,1.66.36,2.54.36,1.05,0,2.05-.18,2.99-.51-.02-.04-.05-.08-.06-.12l-2.76-7.57h0ZM3.01,12c0,3.56,2.07,6.63,5.07,8.09L3.79,8.34c-.5,1.12-.78,2.35-.78,3.66ZM18.07,11.55c0-1.11-.4-1.88-.74-2.48-.46-.74-.88-1.37-.88-2.11,0-.82.63-1.6,1.51-1.6.04,0,.08,0,.12,0-1.6-1.46-3.73-2.36-6.07-2.36-3.14,0-5.9,1.61-7.51,4.05.21,0,.41.01.58.01.94,0,2.39-.11,2.39-.11.48-.03.54.68.06.74,0,0-.49.06-1.03.09l3.27,9.74,1.97-5.9-1.4-3.84c-.48-.03-.94-.09-.94-.09-.49-.03-.43-.77.06-.74,0,0,1.48.11,2.37.11.94,0,2.4-.11,2.4-.11.49-.03.54.68.06.74,0,0-.49.06-1.03.09l3.25,9.67.9-3c.46-1.17.68-2.14.68-2.91h0ZM19.89,7.69c.04.29.06.59.06.92,0,.91-.17,1.94-.68,3.22l-2.75,7.94c2.67-1.56,4.47-4.45,4.47-7.77,0-1.56-.4-3.03-1.1-4.31h0ZM12,22c-5.51,0-10-4.49-10-10S6.49,2,12,2s10,4.49,10,10-4.49,10-10,10Z"/>
  </g>
</svg>