<?xml version="1.0" encoding="UTF-8"?>
<svg xmlns="http://www.w3.org/2000/svg" version="1.1" viewBox="0 0 24 24">
  <!-- Generator: Adobe Illustrator 29.8.4, SVG Export Plug-In . SVG Version: 2.1.1 Build 6)  -->
  <g id="Layer_1" focusable="false">
    <path d="M21.8,8s-.19-1.38-.8-1.98c-.76-.8-1.61-.8-2-.85-2.8-.2-7-.2-7-.2h-.01s-4.2,0-7,.2c-.39.05-1.24.05-2,.85-.6.61-.8,1.99-.8,1.99,0,0-.2,1.62-.2,3.24v1.52c0,1.62.2,3.24.2,3.24,0,0,.19,1.38.8,1.99.76.8,1.76.77,2.2.85,1.6.15,6.8.2,6.8.2,0,0,4.2,0,7-.21.39-.05,1.24-.05,2.01-.85.6-.61.8-1.98.8-1.98,0,0,.2-1.62.2-3.24v-1.52c0-1.62-.2-3.24-.2-3.24ZM9.94,14.59v-5.62l5.4,2.82-5.4,2.8Z"/>
  </g>
</svg>